/* XPM */
static char * dukejre_xpm[] = {
"32 32 164 2",
"  	c None",
". 	c #000000",
"+ 	c #2D2D2D",
"@ 	c #363636",
"# 	c #313131",
"$ 	c #3E3E3E",
"% 	c #3D3D3D",
"& 	c #2B2B2B",
"* 	c #444444",
"= 	c #494949",
"- 	c #373737",
"; 	c #1C1C1C",
"> 	c #545454",
", 	c #434343",
"' 	c #272727",
") 	c #0B0B0B",
"! 	c #414141",
"~ 	c #5C5C5C",
"{ 	c #4F4F4F",
"] 	c #141414",
"^ 	c #3A3A3A",
"/ 	c #585858",
"( 	c #403A3A",
"_ 	c #32201F",
": 	c #090202",
"< 	c #4F4E4E",
"[ 	c #833D3E",
"} 	c #BE3432",
"| 	c #D63736",
"1 	c #79201F",
"2 	c #040101",
"3 	c #251313",
"4 	c #212121",
"5 	c #9A5857",
"6 	c #EBB9B9",
"7 	c #E03A38",
"8 	c #CA3430",
"9 	c #862221",
"0 	c #251211",
"a 	c #774C35",
"b 	c #CC5213",
"c 	c #A25151",
"d 	c #B23D3C",
"e 	c #AC2B29",
"f 	c #8F2422",
"g 	c #691A19",
"h 	c #321D1E",
"i 	c #7E3D20",
"j 	c #D55A0D",
"k 	c #8E3F10",
"l 	c #250F0F",
"m 	c #5D1615",
"n 	c #631817",
"o 	c #661918",
"p 	c #501313",
"q 	c #200909",
"r 	c #3D3A39",
"s 	c #6D341B",
"t 	c #AE4F14",
"u 	c #CC5515",
"v 	c #44403F",
"w 	c #381414",
"x 	c #310C0C",
"y 	c #220908",
"z 	c #1F0B0B",
"A 	c #413939",
"B 	c #525252",
"C 	c #9B6343",
"D 	c #D96319",
"E 	c #D3A88C",
"F 	c #D7D7D7",
"G 	c #868383",
"H 	c #797777",
"I 	c #898989",
"J 	c #A3A3A3",
"K 	c #DBDBDB",
"L 	c #E27626",
"M 	c #DE6F21",
"N 	c #E9E8E7",
"O 	c #EDEDED",
"P 	c #F8F8F8",
"Q 	c #FFFFFF",
"R 	c #EC7A20",
"S 	c #E27728",
"T 	c #ED7C21",
"U 	c #E5E1DE",
"V 	c #EEEEEE",
"W 	c #F6F6F6",
"X 	c #FDFDFD",
"Y 	c #B76D3E",
"Z 	c #E5711D",
"` 	c #F0851E",
" .	c #ED7D24",
"..	c #F18B1D",
"+.	c #C75810",
"@.	c #CC5616",
"#.	c #E36F1D",
"$.	c #F2911A",
"%.	c #FBFBFB",
"&.	c #F9F6F2",
"*.	c #F9AA14",
"=.	c #F08A1D",
"-.	c #D35E13",
";.	c #E16D1C",
">.	c #F49B18",
",.	c #B9B9B9",
"'.	c #FAFAFA",
").	c #F49818",
"!.	c #E3701D",
"~.	c #A1480F",
"{.	c #E06B1C",
"].	c #FCFCFC",
"^.	c #E26D1C",
"/.	c #0F0F0F",
"(.	c #DE691B",
"_.	c #F6A016",
":.	c #E97E1C",
"<.	c #F7A117",
"[.	c #EB7A20",
"}.	c #E4701D",
"|.	c #837B77",
"1.	c #A0938A",
"2.	c #717171",
"3.	c #959595",
"4.	c #E1A27A",
"5.	c #DB844B",
"6.	c #D6671F",
"7.	c #D56318",
"8.	c #D6671B",
"9.	c #DB6616",
"0.	c #DE6614",
"a.	c #D96B1C",
"b.	c #D66A21",
"c.	c #D7996D",
"d.	c #C0BFBF",
"e.	c #393939",
"f.	c #686868",
"g.	c #8F8F8F",
"h.	c #D3D3D3",
"i.	c #D1D1D1",
"j.	c #CFCFCF",
"k.	c #DCDCDC",
"l.	c #D8D8D8",
"m.	c #C0C0C0",
"n.	c #C3C3C3",
"o.	c #333333",
"p.	c #696969",
"q.	c #606060",
"r.	c #E6E6E6",
"s.	c #A0A0A0",
"t.	c #8A8A8A",
"u.	c #5F5F5F",
"v.	c #8C8C8C",
"w.	c #B6B6B6",
"x.	c #BDBDBD",
"y.	c #262626",
"z.	c #7C7C7C",
"A.	c #C2C2C2",
"B.	c #C1C1C1",
"C.	c #B5B5B5",
"D.	c #6E6E6E",
"E.	c #868686",
"F.	c #ABABAB",
"G.	c #292929",
"                                                                ",
"                                  . .                           ",
"                                  . .   . .                     ",
"                              .     .   . .                     ",
"                    +         . .   . . . .                     ",
"                    @ #       . . . . . . .                     ",
"                    $ % &       . . . . . .                     ",
"                    * = - ;       . . . . .                     ",
"                    * > , ' ) . . . . . .                       ",
"                    ! ~ { # ] .     . . .                       ",
"                    ^ / / ( _ : .     . .                       ",
"                    # < [ } | 1 2     .                         ",
"                  3 4 5 6 7 8 9 0 a b .                         ",
"                  3 3 c d e f g h i j .                         ",
"                  k l m n o p q r s j .                         ",
"                t u v w x y z A B C j .                         ",
"              $ . D E F G H I J K j L .                         ",
"              $ . M j N O P Q Q Q j R j                         ",
"            $ $ . S T j U V W X j T T j Y                       ",
"            $ . . Z ` T j j j j j  ...T j +.                    ",
"            . . @.#.$.%.%.%.%.%.%.&.*.=.j -.                    ",
"            . . @.;.>.%.%.,.. '.%.%.*.).!.j ~.                  ",
"            . . @.{.*.%.%.%.. ].].%.*.*.^.j j                   ",
"            /.. j (.*.%.'.%.. '.%.%.*._.^.j j                   ",
"            . . . j :.%.'.%.%.'.'.%.<.[.}.j |.                  ",
"          . . # . . j j j T T T T T T T j 1.2.                  ",
"            . ^ 3.O 4.5.6.7.8.9.0.a.b.c.d.e.f.                  ",
"            ] . g.O h.i.j.j.h.h.h.k.l.m.n.o.p.                  ",
"              q.O O r.s.t.$ $ $ u.v.3.w.x.y.u.                  ",
"              z.A.B.C.D.$ $     $ $ u.E.F.& u.                  ",
"              # F.F.D.$ $         $ $ ' G.e.u.                  ",
"                $ $ $ $               $ $ $                     "};
