/* XPM */
static char *__x__[] = {
/* columns rows colors chars-per-pixel */
"32 32 183 2",
"   c black",
".  c #060606",
"X  c gray3",
"o  c #191919",
"O  c #1B1B1B",
"+  c #1E1E1E",
"@  c gray12",
"#  c #202020",
"$  c gray13",
"%  c #222222",
"&  c #232323",
"*  c gray14",
"=  c #252525",
"-  c gray15",
";  c #272727",
":  c #282828",
">  c gray16",
",  c #2A2A2A",
"<  c gray17",
"1  c #2C2C2C",
"2  c #2D2D2D",
"3  c gray18",
"4  c #2F2F2F",
"5  c gray19",
"6  c #313131",
"7  c #323232",
"8  c gray20",
"9  c #343434",
"0  c #353535",
"q  c gray21",
"w  c #373737",
"e  c gray22",
"r  c #393939",
"t  c #3A3A3A",
"y  c gray23",
"u  c #3C3C3C",
"i  c gray24",
"p  c #3E3E3E",
"a  c #3F3F3F",
"s  c gray25",
"d  c #414141",
"f  c gray26",
"g  c #434343",
"h  c #444444",
"j  c gray27",
"k  c #464646",
"l  c gray28",
"z  c #484848",
"x  c #494949",
"c  c gray29",
"v  c #4B4B4B",
"b  c #4C4C4C",
"n  c gray30",
"m  c #4E4E4E",
"M  c gray31",
"N  c #505050",
"B  c #515151",
"V  c gray32",
"C  c #535353",
"Z  c gray33",
"A  c #555555",
"S  c #565656",
"D  c #585858",
"F  c gray35",
"G  c #5A5A5A",
"H  c #5B5B5B",
"J  c gray36",
"K  c #5D5D5D",
"L  c gray37",
"P  c #5F5F5F",
"I  c #606060",
"U  c gray38",
"Y  c #626262",
"T  c #646464",
"R  c #656565",
"E  c gray40",
"W  c #676767",
"Q  c #686868",
"!  c DimGray",
"~  c #6A6A6A",
"^  c gray42",
"/  c #6C6C6C",
"(  c #6D6D6D",
")  c gray43",
"_  c #6F6F6F",
"`  c #717171",
"'  c #727272",
"]  c gray45",
"[  c #747474",
"{  c gray46",
"}  c #767676",
"|  c #777777",
" . c gray47",
".. c #797979",
"X. c gray48",
"o. c #7B7B7B",
"O. c #7C7C7C",
"+. c gray49",
"@. c #7E7E7E",
"#. c #7F7F7F",
"$. c #808080",
"%. c #818181",
"&. c gray51",
"*. c #838383",
"=. c gray52",
"-. c gray53",
";. c #888888",
":. c #898989",
">. c gray54",
",. c gray55",
"<. c #8D8D8D",
"1. c #8E8E8E",
"2. c #909090",
"3. c #939393",
"4. c gray58",
"5. c #959595",
"6. c gray59",
"7. c #989898",
"8. c #9A9A9A",
"9. c #9D9D9D",
"0. c gray62",
"q. c #A0A0A0",
"w. c gray63",
"e. c #A2A2A2",
"r. c gray64",
"t. c #A4A4A4",
"y. c #A5A5A5",
"u. c gray66",
"i. c #AAAAAA",
"p. c gray67",
"a. c #ACACAC",
"s. c gray68",
"d. c gray69",
"f. c #B1B1B1",
"g. c #B2B2B2",
"h. c gray71",
"j. c #B6B6B6",
"k. c #B7B7B7",
"l. c #B9B9B9",
"z. c #BBBBBB",
"x. c gray74",
"c. c gray",
"v. c gray75",
"b. c #C0C0C0",
"n. c #C1C1C1",
"m. c #C3C3C3",
"M. c #C6C6C6",
"N. c gray81",
"B. c #D0D0D0",
"V. c gray82",
"C. c #D2D2D2",
"Z. c gray83",
"A. c gray84",
"S. c #D7D7D7",
"D. c #DADADA",
"F. c gray86",
"G. c #DDDDDD",
"H. c gray87",
"J. c #DFDFDF",
"K. c gray88",
"L. c #E1E1E1",
"P. c #E2E2E2",
"I. c gray89",
"U. c #E4E4E4",
"Y. c #E7E7E7",
"T. c gray91",
"R. c #E9E9E9",
"E. c gray92",
"W. c gray93",
"Q. c #EEEEEE",
"!. c gray94",
"~. c #F3F3F3",
"^. c #F4F4F4",
"/. c gray96",
"(. c #F6F6F6",
"). c gray97",
"_. c #F8F8F8",
"`. c #F9F9F9",
"'. c #FBFBFB",
"]. c gray99",
"[. c #FDFDFD",
"{. c gray100",
"}. c None",
/* pixels */
"}.}.}.}.t i d k b V A D J P Y R ! / _ ' } ..O.#.*.@.' U }.}.}.}.",
"}.}.}.0 e x M B z t 1 : > , , , , , , , > : 1 t z F Y ] E }.}.}.",
"}.}.5 t v k d q 3 8 u g z N F T T F N l s u 0 2 > q h n R J }.}.",
"}.4 3 j j F T T ^ ] | -.k.B.U.(.`.Y.V.z.,.o.} ' ^ U B f l P g }.",
"}.2 y s D U I Q ) O.x._.{.{.{.{.{.{.{.{.`.c.@.` ( Q I m u M l }.",
"}., i p J J Y E 7.).{.{.{.{.{.{.{.{.{.{.{.{./.9.^ E U F 2 d l }.",
"}.= s w Z H P 3.'.{.{.{.T.j.q.<.<.r.l.R.{.{.{.].5.T P G ; 6 h }.",
"}.= w 2 C S <.'.{.{.Q.e.' ] [ { | { [ [ r.W.{.{.'.,.H S 4 # d }.",
"}.- , 6 m K /.{.{.R.{ W ! #.i.n.m.p.$.^ ! } R.{.{._.Y V 8 $ i }.",
"}.; # 9 z u.{.{.E./ K R v.[.{.{.{.{.[.b.Q P _ E.{.{.s.b q $ t }.",
"}.: $ 0 B (.{.{.<.Z H C.{.{.{.{.{.{.{.{.C.K A >.{.{.(.B w $ q }.",
"}.> $ 9 6.{.{.K.c b a.{.{.{.S.t.r.S.{.{.{.p.m n H.{.{.8.w # 8 }.",
"}.< $ 6 h.{.{.2.f C ).{.{.y.n n n n t.{.{./.C j 1.{.{.z.0 # 5 }.",
"}.1 $ = V.{.{.~ u ..{.{.K.j x 0.0.x h J.{.{.+.p ^ {.{.Z.- $ 1 }.",
"}.2 $ $ !.{.{.j 9 4.{.{.p.u $.{.{.$.y i.{.{.5.w x {.{.Q.$ $ > }.",
"}.3 $ % `.{.{.0 2 ,.{.{.g.8 H '.'.H 6 f.{.{.:.5 0 {.{.].& $ = }.",
"}.4 $ $ A.{.{.D * K {.{.Q.7 : u t ; 7 W.{.{.J = D {.{.F.$ $ % }.",
"}.5 $ $ d.{.{.%.= > P.{.{.M.4 > , 7 M.{.{.I.< = *.{.{.f.% $ @ }.",
"}.6 $ $ >.{.{.C.- - ] {.{.{.6.a d 5.{.{.{.] ; - N.{.{.;.% $ + }.",
"}.8 $ % y `.{.{.( - ; 1.{.{.2.S J r.{.{.5.> ; ! {.{.'.a % % + }.",
"}.9 $ % & 0.{.{.L.e ; 5 L #.D ! o.) ,.X.i 5 0 H.{.{.w.& & % + }.",
"}.0 $ % & 9 ^.{.{.D.i 0 d N P ) | _ I N f k S.{.{.~.q & & % + }.",
"}.q $ $ % & } [.{.{.G.h h B P ! ) ! L B B L.{.{.[.{ * & % $ + }.",
"}.w # $ % & * ] ].{.{.#.h m F Y R Y H M 7.{.{.'._ * * & % $ + }.",
"}.e 2 $ $ & & * _ Q.T.A d v Z G J G Z b ~ [.).E = * & & $ $ @ }.",
"}.9 t # $ % % * * : 0 0 p l n B C B n l p a p = * * % % $ @ # }.",
"}.% d 7 # $ % & & * , 7 t s l c b c l s t 7 , * & & % $ # $ o }.",
"}.  r j 2 $ $ % & * ; 3 q y s g j g s y 0 < = * & % $ % : %   }.",
"}.}.X p m r : $ % % * * = : , 2 2 < > = * * * % % , 4 9 * . }.}.",
"}.}.}.  = j B H L Y R Q ^ _ ' {  .O.#.&.=.&.o.[ ( V r O   }.}.}.",
"}.}.}.}.                                                }.}.}.}.",
"}.}.}.}.}.}.}.}.}.}.}.}.}.}.}.}.}.}.}.}.}.}.}.}.}.}.}.}.}.}.}.}."
};
