/* XPM */
static char *__x__[] = {
/* columns rows colors chars-per-pixel */
"16 16 127 2",
"   c black",
".  c gray5",
"X  c gray8",
"o  c #151515",
"O  c gray10",
"+  c #1B1B1B",
"@  c #1D1D1D",
"#  c #1E1E1E",
"$  c #202020",
"%  c gray13",
"&  c #222222",
"*  c #232323",
"=  c gray14",
"-  c #252525",
";  c gray15",
":  c #272727",
">  c #282828",
",  c gray16",
"<  c #2A2A2A",
"1  c gray17",
"2  c #2C2C2C",
"3  c #2F2F2F",
"4  c gray19",
"5  c #323232",
"6  c gray20",
"7  c #343434",
"8  c #353535",
"9  c #373737",
"0  c gray22",
"q  c gray23",
"w  c #3C3C3C",
"e  c gray24",
"r  c #3E3E3E",
"t  c #414141",
"y  c gray26",
"u  c #434343",
"i  c #444444",
"p  c gray27",
"a  c #464646",
"s  c gray28",
"d  c #484848",
"f  c #494949",
"g  c #4B4B4B",
"h  c #4C4C4C",
"j  c gray30",
"k  c #4E4E4E",
"l  c gray31",
"z  c #505050",
"x  c #515151",
"c  c gray32",
"v  c gray33",
"b  c #555555",
"n  c gray34",
"m  c #585858",
"M  c #5A5A5A",
"N  c #5B5B5B",
"B  c gray36",
"V  c gray37",
"C  c #5F5F5F",
"Z  c #606060",
"A  c #626262",
"S  c gray39",
"D  c gray40",
"F  c #676767",
"G  c DimGray",
"H  c #6C6C6C",
"J  c #6D6D6D",
"K  c gray43",
"L  c #6F6F6F",
"P  c #717171",
"I  c #747474",
"U  c #777777",
"Y  c #7B7B7B",
"T  c #7C7C7C",
"R  c #818181",
"E  c gray51",
"W  c gray52",
"Q  c #898989",
"!  c gray55",
"~  c #8D8D8D",
"^  c #9B9B9B",
"/  c gray61",
"(  c gray62",
")  c gray63",
"_  c #A2A2A2",
"`  c gray64",
"'  c #A4A4A4",
"]  c #A5A5A5",
"[  c gray65",
"{  c #A7A7A7",
"}  c #ACACAC",
"|  c gray68",
" . c gray69",
".. c #B2B2B2",
"X. c gray70",
"o. c gray71",
"O. c gray72",
"+. c #BBBBBB",
"@. c #BCBCBC",
"#. c gray75",
"$. c #C0C0C0",
"%. c #C3C3C3",
"&. c #C8C8C8",
"*. c gray79",
"=. c gray82",
"-. c #D2D2D2",
";. c LightGray",
":. c gray83",
">. c #E1E1E1",
",. c #E2E2E2",
"<. c #E4E4E4",
"1. c #E6E6E6",
"2. c #EAEAEA",
"3. c #ECECEC",
"4. c gray93",
"5. c #EEEEEE",
"6. c gray95",
"7. c gray96",
"8. c #F6F6F6",
"9. c gray97",
"0. c gray98",
"q. c #FBFBFB",
"w. c gray99",
"e. c #FDFDFD",
"r. c #FEFEFE",
"t. c gray100",
"y. c None",
/* pixels */
"y.y.e s x z f a f h n S G F y.y.",
"y.9 k n g N ! } | ! C c s l M y.",
"4 e S Z ( 4.t.t.t.t.5.' J M d w ",
"< i v ( r.<.) Q ~ { 1.r.` C - 7 ",
"> 5 G e.=.G ) -.:._ K ;.e.K 1 > ",
"> < O.7.B [ t.3.2.t.{ A 9.@.2 & ",
"; - ,.+.c w.%.m n $.q.m #.<.; # ",
"- & q./ j t.W ^ ^ E t.v ( 0.% + ",
"- % >...6 7.&.< : *.8.7 o.>.% + ",
": %  .6.7 I t.S H t.U 8 6. .& + ",
"1 % a w.+.2 l m Y L y #.w.s * + ",
"3 % & E t.] i C K V X.r.R = & O ",
"$ 4 % * G D t v B v T P - * & o ",
"y.r % & * , 0 s h i 8 > * * @ y.",
"y.X 0 q t p d h z c b k u : . y.",
"y.y.y.                    y.y.y."
};
